# xmcd
#
# Track frame offsets:
#	150
#	18698
#	29255
#	50590
#	68755
#	84313
#	102247
#	113432
#
# Disc length: 1830 seconds
#
# Revision: 1
# Processed by: cddbd v1.5.1PL0 Copyright (c) Steve Scherf et al.
# Submitted via: CDex 1.50Beta5
#
DISCID=5c072408
DTITLE=Arts - Jolly Step
DYEAR=2003
DGENRE=Rock
TTITLE0=Jolly Step
TTITLE1=Murasaki Jet
TTITLE2=Pheromone
TTITLE3=Elephant Talk
TTITLE4=Wild Boy, Wild Child
TTITLE5=勝手にシンドバッド
TTITLE6=CAREER OPPORTUNITIES
TTITLE7=Go! Ska Go!
EXTD=
EXTT0=
EXTT1=
EXTT2=
EXTT3=
EXTT4=
EXTT5=
EXTT6=
EXTT7=
PLAYORDER=
